
    <svg version="1.1" viewBox="0 0 1024 1024" xmlns="http://www.w3.org/2000/svg">
      <g stroke="lightgray" stroke-dasharray="1,1" stroke-width="1" transform="scale(4, 4)">
        <line x1="0" y1="0" x2="256" y2="256"></line>
        <line x1="256" y1="0" x2="0" y2="256"></line>
        <line x1="128" y1="0" x2="128" y2="256"></line>
        <line x1="0" y1="128" x2="256" y2="128"></line>
      </g>
      <g transform="scale(1, -1) translate(0, -900)">
        <style type="text/css">
          @keyframes keyframes0 { 
 from {
stroke:blue;
stroke-dashoffset:577.0;
stroke-width:128.0;
}
65.0% {
animation-timing-function:step-end;
stroke:blue;
stroke-dashoffset:0.0;
stroke-width:128.0;
}
to {
stroke:black;
stroke-width:1024.0;
} 
 } @keyframes keyframes1 { 
 from {
stroke:blue;
stroke-dashoffset:587.0;
stroke-width:128.0;
}
66.0% {
animation-timing-function:step-end;
stroke:blue;
stroke-dashoffset:0.0;
stroke-width:128.0;
}
to {
stroke:black;
stroke-width:1024.0;
} 
 }
        </style>
          <path d="M 323 706 Q 325 699 328 694 Q 334 686 367 671 Q 474 619 574 561 Q 600 545 617 543 Q 627 545 631 559 Q 641 576 613 621 Q 575 684 334 717 Q 321 719 323 706 Z" fill="lightgray"></path>
<path d="M 312 541 Q 314 535 316 531 Q 320 524 347 512 Q 455 461 563 397 Q 588 380 606 380 Q 615 382 619 396 Q 629 414 602 457 Q 564 519 321 554 Q 320 555 319 555 Q 310 555 312 541 Z" fill="lightgray"></path> 
          <path cli-path="url(\#clip-0)" d="M 336 704 L 450 666 L 554 620 L 587 595 L 614 558" stroke-dasharray="449 898" stroke-linecap="round"/>
<path cli-path="url(\#clip-1)" d="M 317 548 L 347 531 L 455 496 L 543 456 L 578 430 L 602 395" stroke-dasharray="459 918" stroke-linecap="round"/>
      </g>
    </svg>
    